<mxfile host="app.diagrams.net" modified="2021-06-09T10:17:54.425Z" agent="5.0 (Macintosh; Intel Mac OS X 10_15_7) AppleWebKit/537.36 (KHTML, like Gecko) Chrome/90.0.4430.212 Safari/537.36" etag="zURlWIaPkMyeDmVcisAj" version="14.7.3" type="github">
  <diagram id="HriOcDttCyKX-bXiYPCW" name="Page-1">
    <mxGraphModel dx="2359" dy="1147" grid="1" gridSize="10" guides="1" tooltips="1" connect="1" arrows="1" fold="1" page="1" pageScale="1" pageWidth="827" pageHeight="1169" math="0" shadow="0">
      <root>
        <mxCell id="0" />
        <mxCell id="1" parent="0" />
        <mxCell id="NyaL6x0_iCmJU8p4krJc-3" style="edgeStyle=orthogonalEdgeStyle;rounded=0;orthogonalLoop=1;jettySize=auto;html=1;" edge="1" parent="1" source="NyaL6x0_iCmJU8p4krJc-1" target="NyaL6x0_iCmJU8p4krJc-2">
          <mxGeometry relative="1" as="geometry" />
        </mxCell>
        <mxCell id="NyaL6x0_iCmJU8p4krJc-1" value="精准派发单" style="rounded=0;whiteSpace=wrap;html=1;" vertex="1" parent="1">
          <mxGeometry x="360" y="190" width="120" height="60" as="geometry" />
        </mxCell>
        <mxCell id="NyaL6x0_iCmJU8p4krJc-5" value="" style="edgeStyle=orthogonalEdgeStyle;rounded=0;orthogonalLoop=1;jettySize=auto;html=1;" edge="1" parent="1" source="NyaL6x0_iCmJU8p4krJc-2" target="NyaL6x0_iCmJU8p4krJc-4">
          <mxGeometry relative="1" as="geometry" />
        </mxCell>
        <mxCell id="NyaL6x0_iCmJU8p4krJc-8" value="" style="edgeStyle=orthogonalEdgeStyle;rounded=0;orthogonalLoop=1;jettySize=auto;html=1;" edge="1" parent="1" source="NyaL6x0_iCmJU8p4krJc-2" target="NyaL6x0_iCmJU8p4krJc-7">
          <mxGeometry relative="1" as="geometry" />
        </mxCell>
        <mxCell id="NyaL6x0_iCmJU8p4krJc-2" value="是否是连环派" style="rhombus;whiteSpace=wrap;html=1;" vertex="1" parent="1">
          <mxGeometry x="380" y="290" width="80" height="80" as="geometry" />
        </mxCell>
        <mxCell id="NyaL6x0_iCmJU8p4krJc-4" value="原精准派逻辑" style="whiteSpace=wrap;html=1;" vertex="1" parent="1">
          <mxGeometry x="100" y="300" width="120" height="60" as="geometry" />
        </mxCell>
        <mxCell id="NyaL6x0_iCmJU8p4krJc-6" value="否" style="text;html=1;align=center;verticalAlign=middle;resizable=0;points=[];autosize=1;strokeColor=none;" vertex="1" parent="1">
          <mxGeometry x="300" y="310" width="30" height="20" as="geometry" />
        </mxCell>
        <mxCell id="NyaL6x0_iCmJU8p4krJc-11" value="" style="edgeStyle=orthogonalEdgeStyle;rounded=0;orthogonalLoop=1;jettySize=auto;html=1;" edge="1" parent="1" source="NyaL6x0_iCmJU8p4krJc-7" target="NyaL6x0_iCmJU8p4krJc-10">
          <mxGeometry relative="1" as="geometry" />
        </mxCell>
        <mxCell id="NyaL6x0_iCmJU8p4krJc-7" value="check 司机及其服务中订单" style="whiteSpace=wrap;html=1;" vertex="1" parent="1">
          <mxGeometry x="360" y="420" width="120" height="60" as="geometry" />
        </mxCell>
        <mxCell id="NyaL6x0_iCmJU8p4krJc-9" value="是" style="text;html=1;align=center;verticalAlign=middle;resizable=0;points=[];autosize=1;strokeColor=none;" vertex="1" parent="1">
          <mxGeometry x="405" y="380" width="30" height="20" as="geometry" />
        </mxCell>
        <mxCell id="NyaL6x0_iCmJU8p4krJc-13" value="" style="edgeStyle=orthogonalEdgeStyle;rounded=0;orthogonalLoop=1;jettySize=auto;html=1;" edge="1" parent="1" source="NyaL6x0_iCmJU8p4krJc-10" target="NyaL6x0_iCmJU8p4krJc-12">
          <mxGeometry relative="1" as="geometry" />
        </mxCell>
        <mxCell id="NyaL6x0_iCmJU8p4krJc-14" value="是" style="edgeLabel;html=1;align=center;verticalAlign=middle;resizable=0;points=[];" vertex="1" connectable="0" parent="NyaL6x0_iCmJU8p4krJc-13">
          <mxGeometry x="-0.4" y="-2" relative="1" as="geometry">
            <mxPoint as="offset" />
          </mxGeometry>
        </mxCell>
        <mxCell id="NyaL6x0_iCmJU8p4krJc-16" value="" style="edgeStyle=orthogonalEdgeStyle;rounded=0;orthogonalLoop=1;jettySize=auto;html=1;" edge="1" parent="1" source="NyaL6x0_iCmJU8p4krJc-10" target="NyaL6x0_iCmJU8p4krJc-15">
          <mxGeometry relative="1" as="geometry" />
        </mxCell>
        <mxCell id="NyaL6x0_iCmJU8p4krJc-17" value="否" style="edgeLabel;html=1;align=center;verticalAlign=middle;resizable=0;points=[];" vertex="1" connectable="0" parent="NyaL6x0_iCmJU8p4krJc-16">
          <mxGeometry x="-0.1556" y="1" relative="1" as="geometry">
            <mxPoint as="offset" />
          </mxGeometry>
        </mxCell>
        <mxCell id="NyaL6x0_iCmJU8p4krJc-10" value="当前订单为其他流量" style="rhombus;whiteSpace=wrap;html=1;" vertex="1" parent="1">
          <mxGeometry x="380" y="520" width="80" height="80" as="geometry" />
        </mxCell>
        <mxCell id="NyaL6x0_iCmJU8p4krJc-12" value="是否可以连环派？" style="whiteSpace=wrap;html=1;fillColor=#f8cecc;strokeColor=#b85450;" vertex="1" parent="1">
          <mxGeometry x="100" y="530" width="120" height="60" as="geometry" />
        </mxCell>
        <mxCell id="NyaL6x0_iCmJU8p4krJc-19" value="" style="edgeStyle=orthogonalEdgeStyle;rounded=0;orthogonalLoop=1;jettySize=auto;html=1;" edge="1" parent="1" source="NyaL6x0_iCmJU8p4krJc-15" target="NyaL6x0_iCmJU8p4krJc-18">
          <mxGeometry relative="1" as="geometry" />
        </mxCell>
        <mxCell id="NyaL6x0_iCmJU8p4krJc-15" value="锁定司机" style="whiteSpace=wrap;html=1;" vertex="1" parent="1">
          <mxGeometry x="360" y="660" width="120" height="60" as="geometry" />
        </mxCell>
        <mxCell id="NyaL6x0_iCmJU8p4krJc-21" value="" style="edgeStyle=orthogonalEdgeStyle;rounded=0;orthogonalLoop=1;jettySize=auto;html=1;" edge="1" parent="1" source="NyaL6x0_iCmJU8p4krJc-18" target="NyaL6x0_iCmJU8p4krJc-20">
          <mxGeometry relative="1" as="geometry" />
        </mxCell>
        <mxCell id="NyaL6x0_iCmJU8p4krJc-18" value="锁定连环派单：时效" style="whiteSpace=wrap;html=1;fillColor=#ffe6cc;strokeColor=#d79b00;" vertex="1" parent="1">
          <mxGeometry x="360" y="760" width="120" height="60" as="geometry" />
        </mxCell>
        <mxCell id="NyaL6x0_iCmJU8p4krJc-23" value="" style="edgeStyle=orthogonalEdgeStyle;rounded=0;orthogonalLoop=1;jettySize=auto;html=1;" edge="1" parent="1" source="NyaL6x0_iCmJU8p4krJc-20" target="NyaL6x0_iCmJU8p4krJc-22">
          <mxGeometry relative="1" as="geometry" />
        </mxCell>
        <mxCell id="NyaL6x0_iCmJU8p4krJc-24" value="否&lt;br&gt;" style="edgeLabel;html=1;align=center;verticalAlign=middle;resizable=0;points=[];" vertex="1" connectable="0" parent="NyaL6x0_iCmJU8p4krJc-23">
          <mxGeometry x="0.06" relative="1" as="geometry">
            <mxPoint as="offset" />
          </mxGeometry>
        </mxCell>
        <mxCell id="NyaL6x0_iCmJU8p4krJc-26" value="" style="edgeStyle=orthogonalEdgeStyle;rounded=0;orthogonalLoop=1;jettySize=auto;html=1;" edge="1" parent="1" source="NyaL6x0_iCmJU8p4krJc-20" target="NyaL6x0_iCmJU8p4krJc-25">
          <mxGeometry relative="1" as="geometry" />
        </mxCell>
        <mxCell id="NyaL6x0_iCmJU8p4krJc-27" value="是" style="edgeLabel;html=1;align=center;verticalAlign=middle;resizable=0;points=[];" vertex="1" connectable="0" parent="NyaL6x0_iCmJU8p4krJc-26">
          <mxGeometry x="-0.2889" relative="1" as="geometry">
            <mxPoint as="offset" />
          </mxGeometry>
        </mxCell>
        <mxCell id="NyaL6x0_iCmJU8p4krJc-20" value="锁定是否成功" style="rhombus;whiteSpace=wrap;html=1;" vertex="1" parent="1">
          <mxGeometry x="380" y="860" width="80" height="80" as="geometry" />
        </mxCell>
        <mxCell id="NyaL6x0_iCmJU8p4krJc-22" value="&lt;div&gt;&lt;span&gt;派单结果通知assignCallback&lt;/span&gt;&lt;br&gt;&lt;/div&gt;" style="whiteSpace=wrap;html=1;" vertex="1" parent="1">
          <mxGeometry x="100" y="870" width="120" height="60" as="geometry" />
        </mxCell>
        <mxCell id="NyaL6x0_iCmJU8p4krJc-33" value="" style="edgeStyle=orthogonalEdgeStyle;rounded=0;orthogonalLoop=1;jettySize=auto;html=1;" edge="1" parent="1" source="NyaL6x0_iCmJU8p4krJc-25" target="NyaL6x0_iCmJU8p4krJc-32">
          <mxGeometry relative="1" as="geometry" />
        </mxCell>
        <mxCell id="NyaL6x0_iCmJU8p4krJc-25" value="striveCallback" style="whiteSpace=wrap;html=1;" vertex="1" parent="1">
          <mxGeometry x="360" y="1000" width="120" height="60" as="geometry" />
        </mxCell>
        <mxCell id="NyaL6x0_iCmJU8p4krJc-35" value="" style="edgeStyle=orthogonalEdgeStyle;rounded=0;orthogonalLoop=1;jettySize=auto;html=1;" edge="1" parent="1" source="NyaL6x0_iCmJU8p4krJc-32" target="NyaL6x0_iCmJU8p4krJc-34">
          <mxGeometry relative="1" as="geometry" />
        </mxCell>
        <mxCell id="NyaL6x0_iCmJU8p4krJc-32" value="抢单结果通知" style="whiteSpace=wrap;html=1;" vertex="1" parent="1">
          <mxGeometry x="560" y="1000" width="120" height="60" as="geometry" />
        </mxCell>
        <mxCell id="NyaL6x0_iCmJU8p4krJc-45" value="" style="edgeStyle=orthogonalEdgeStyle;rounded=0;orthogonalLoop=1;jettySize=auto;html=1;" edge="1" parent="1" source="NyaL6x0_iCmJU8p4krJc-34" target="NyaL6x0_iCmJU8p4krJc-44">
          <mxGeometry relative="1" as="geometry" />
        </mxCell>
        <mxCell id="NyaL6x0_iCmJU8p4krJc-54" value="" style="edgeStyle=orthogonalEdgeStyle;rounded=0;orthogonalLoop=1;jettySize=auto;html=1;entryX=0.5;entryY=1;entryDx=0;entryDy=0;" edge="1" parent="1" source="NyaL6x0_iCmJU8p4krJc-34" target="NyaL6x0_iCmJU8p4krJc-56">
          <mxGeometry relative="1" as="geometry">
            <mxPoint x="620" y="790" as="targetPoint" />
          </mxGeometry>
        </mxCell>
        <mxCell id="NyaL6x0_iCmJU8p4krJc-55" value="是" style="edgeLabel;html=1;align=center;verticalAlign=middle;resizable=0;points=[];" vertex="1" connectable="0" parent="NyaL6x0_iCmJU8p4krJc-54">
          <mxGeometry x="-0.0889" relative="1" as="geometry">
            <mxPoint as="offset" />
          </mxGeometry>
        </mxCell>
        <mxCell id="NyaL6x0_iCmJU8p4krJc-34" value="是否成功" style="rhombus;whiteSpace=wrap;html=1;" vertex="1" parent="1">
          <mxGeometry x="580" y="850" width="80" height="80" as="geometry" />
        </mxCell>
        <mxCell id="NyaL6x0_iCmJU8p4krJc-39" value="" style="edgeStyle=orthogonalEdgeStyle;rounded=0;orthogonalLoop=1;jettySize=auto;html=1;" edge="1" parent="1" source="NyaL6x0_iCmJU8p4krJc-36" target="NyaL6x0_iCmJU8p4krJc-38">
          <mxGeometry relative="1" as="geometry" />
        </mxCell>
        <mxCell id="NyaL6x0_iCmJU8p4krJc-36" value="取消连环派锁定" style="whiteSpace=wrap;html=1;" vertex="1" parent="1">
          <mxGeometry x="890" y="860" width="120" height="60" as="geometry" />
        </mxCell>
        <mxCell id="NyaL6x0_iCmJU8p4krJc-38" value="结束" style="whiteSpace=wrap;html=1;" vertex="1" parent="1">
          <mxGeometry x="1050" y="860" width="120" height="60" as="geometry" />
        </mxCell>
        <mxCell id="NyaL6x0_iCmJU8p4krJc-47" style="edgeStyle=orthogonalEdgeStyle;rounded=0;orthogonalLoop=1;jettySize=auto;html=1;entryX=0;entryY=0.5;entryDx=0;entryDy=0;" edge="1" parent="1" source="NyaL6x0_iCmJU8p4krJc-44" target="NyaL6x0_iCmJU8p4krJc-36">
          <mxGeometry relative="1" as="geometry" />
        </mxCell>
        <mxCell id="NyaL6x0_iCmJU8p4krJc-49" value="是" style="edgeLabel;html=1;align=center;verticalAlign=middle;resizable=0;points=[];" vertex="1" connectable="0" parent="NyaL6x0_iCmJU8p4krJc-47">
          <mxGeometry x="-0.04" y="2" relative="1" as="geometry">
            <mxPoint as="offset" />
          </mxGeometry>
        </mxCell>
        <mxCell id="NyaL6x0_iCmJU8p4krJc-51" value="" style="edgeStyle=orthogonalEdgeStyle;rounded=0;orthogonalLoop=1;jettySize=auto;html=1;" edge="1" parent="1" source="NyaL6x0_iCmJU8p4krJc-44" target="NyaL6x0_iCmJU8p4krJc-50">
          <mxGeometry relative="1" as="geometry">
            <Array as="points">
              <mxPoint x="800" y="760" />
            </Array>
          </mxGeometry>
        </mxCell>
        <mxCell id="NyaL6x0_iCmJU8p4krJc-52" value="否" style="edgeLabel;html=1;align=center;verticalAlign=middle;resizable=0;points=[];" vertex="1" connectable="0" parent="NyaL6x0_iCmJU8p4krJc-51">
          <mxGeometry x="0.2941" y="1" relative="1" as="geometry">
            <mxPoint as="offset" />
          </mxGeometry>
        </mxCell>
        <mxCell id="NyaL6x0_iCmJU8p4krJc-44" value="判定是否连环派？" style="rhombus;whiteSpace=wrap;html=1;fillColor=#e3c800;strokeColor=#B09500;fontColor=#000000;" vertex="1" parent="1">
          <mxGeometry x="760" y="850" width="80" height="80" as="geometry" />
        </mxCell>
        <mxCell id="NyaL6x0_iCmJU8p4krJc-46" value="否" style="text;html=1;align=center;verticalAlign=middle;resizable=0;points=[];autosize=1;strokeColor=none;" vertex="1" parent="1">
          <mxGeometry x="665" y="880" width="30" height="20" as="geometry" />
        </mxCell>
        <mxCell id="NyaL6x0_iCmJU8p4krJc-50" value="解锁司机：原逻辑" style="whiteSpace=wrap;html=1;fillColor=#d5e8d4;strokeColor=#82b366;" vertex="1" parent="1">
          <mxGeometry x="890" y="740" width="120" height="60" as="geometry" />
        </mxCell>
        <mxCell id="NyaL6x0_iCmJU8p4krJc-59" value="" style="edgeStyle=orthogonalEdgeStyle;rounded=0;orthogonalLoop=1;jettySize=auto;html=1;" edge="1" parent="1" source="NyaL6x0_iCmJU8p4krJc-56" target="NyaL6x0_iCmJU8p4krJc-58">
          <mxGeometry relative="1" as="geometry" />
        </mxCell>
        <mxCell id="NyaL6x0_iCmJU8p4krJc-60" value="是" style="edgeLabel;html=1;align=center;verticalAlign=middle;resizable=0;points=[];" vertex="1" connectable="0" parent="NyaL6x0_iCmJU8p4krJc-59">
          <mxGeometry x="0.04" y="-4" relative="1" as="geometry">
            <mxPoint as="offset" />
          </mxGeometry>
        </mxCell>
        <mxCell id="NyaL6x0_iCmJU8p4krJc-56" value="是否连环派" style="rhombus;whiteSpace=wrap;html=1;" vertex="1" parent="1">
          <mxGeometry x="580" y="720" width="80" height="80" as="geometry" />
        </mxCell>
        <mxCell id="NyaL6x0_iCmJU8p4krJc-62" value="" style="edgeStyle=orthogonalEdgeStyle;rounded=0;orthogonalLoop=1;jettySize=auto;html=1;" edge="1" parent="1" source="NyaL6x0_iCmJU8p4krJc-58">
          <mxGeometry relative="1" as="geometry">
            <mxPoint x="760" y="600" as="targetPoint" />
          </mxGeometry>
        </mxCell>
        <mxCell id="NyaL6x0_iCmJU8p4krJc-58" value="创建连环派订单" style="whiteSpace=wrap;html=1;fillColor=#fff2cc;strokeColor=#d6b656;" vertex="1" parent="1">
          <mxGeometry x="560" y="570" width="120" height="60" as="geometry" />
        </mxCell>
        <mxCell id="NyaL6x0_iCmJU8p4krJc-65" value="" style="edgeStyle=orthogonalEdgeStyle;rounded=0;orthogonalLoop=1;jettySize=auto;html=1;" edge="1" parent="1" source="NyaL6x0_iCmJU8p4krJc-63" target="NyaL6x0_iCmJU8p4krJc-64">
          <mxGeometry relative="1" as="geometry" />
        </mxCell>
        <mxCell id="NyaL6x0_iCmJU8p4krJc-66" value="是" style="edgeLabel;html=1;align=center;verticalAlign=middle;resizable=0;points=[];" vertex="1" connectable="0" parent="NyaL6x0_iCmJU8p4krJc-65">
          <mxGeometry x="-0.2889" y="3" relative="1" as="geometry">
            <mxPoint as="offset" />
          </mxGeometry>
        </mxCell>
        <mxCell id="NyaL6x0_iCmJU8p4krJc-68" value="" style="edgeStyle=orthogonalEdgeStyle;rounded=0;orthogonalLoop=1;jettySize=auto;html=1;" edge="1" parent="1" source="NyaL6x0_iCmJU8p4krJc-63" target="NyaL6x0_iCmJU8p4krJc-67">
          <mxGeometry relative="1" as="geometry" />
        </mxCell>
        <mxCell id="NyaL6x0_iCmJU8p4krJc-69" value="否" style="edgeLabel;html=1;align=center;verticalAlign=middle;resizable=0;points=[];" vertex="1" connectable="0" parent="NyaL6x0_iCmJU8p4krJc-68">
          <mxGeometry x="0.2667" y="1" relative="1" as="geometry">
            <mxPoint x="-13" y="1" as="offset" />
          </mxGeometry>
        </mxCell>
        <mxCell id="NyaL6x0_iCmJU8p4krJc-63" value="创建成功？" style="rhombus;whiteSpace=wrap;html=1;" vertex="1" parent="1">
          <mxGeometry x="760" y="570" width="70" height="60" as="geometry" />
        </mxCell>
        <mxCell id="NyaL6x0_iCmJU8p4krJc-71" value="" style="edgeStyle=orthogonalEdgeStyle;rounded=0;orthogonalLoop=1;jettySize=auto;html=1;" edge="1" parent="1" source="NyaL6x0_iCmJU8p4krJc-64" target="NyaL6x0_iCmJU8p4krJc-70">
          <mxGeometry relative="1" as="geometry" />
        </mxCell>
        <mxCell id="NyaL6x0_iCmJU8p4krJc-64" value="派连环单" style="whiteSpace=wrap;html=1;fillColor=#fff2cc;strokeColor=#d6b656;" vertex="1" parent="1">
          <mxGeometry x="735" y="410" width="120" height="60" as="geometry" />
        </mxCell>
        <mxCell id="NyaL6x0_iCmJU8p4krJc-67" value="取消连环派订单？" style="whiteSpace=wrap;html=1;fillColor=#ffe6cc;strokeColor=#d79b00;" vertex="1" parent="1">
          <mxGeometry x="890" y="570" width="120" height="60" as="geometry" />
        </mxCell>
        <mxCell id="NyaL6x0_iCmJU8p4krJc-73" value="" style="edgeStyle=orthogonalEdgeStyle;rounded=0;orthogonalLoop=1;jettySize=auto;html=1;" edge="1" parent="1" source="NyaL6x0_iCmJU8p4krJc-70" target="NyaL6x0_iCmJU8p4krJc-72">
          <mxGeometry relative="1" as="geometry" />
        </mxCell>
        <mxCell id="NyaL6x0_iCmJU8p4krJc-77" value="是" style="edgeLabel;html=1;align=center;verticalAlign=middle;resizable=0;points=[];" vertex="1" connectable="0" parent="NyaL6x0_iCmJU8p4krJc-73">
          <mxGeometry x="-0.1333" y="1" relative="1" as="geometry">
            <mxPoint as="offset" />
          </mxGeometry>
        </mxCell>
        <mxCell id="NyaL6x0_iCmJU8p4krJc-75" value="" style="edgeStyle=orthogonalEdgeStyle;rounded=0;orthogonalLoop=1;jettySize=auto;html=1;" edge="1" parent="1" source="NyaL6x0_iCmJU8p4krJc-70" target="NyaL6x0_iCmJU8p4krJc-74">
          <mxGeometry relative="1" as="geometry" />
        </mxCell>
        <mxCell id="NyaL6x0_iCmJU8p4krJc-76" value="否" style="edgeLabel;html=1;align=center;verticalAlign=middle;resizable=0;points=[];" vertex="1" connectable="0" parent="NyaL6x0_iCmJU8p4krJc-75">
          <mxGeometry x="-0.2222" y="2" relative="1" as="geometry">
            <mxPoint as="offset" />
          </mxGeometry>
        </mxCell>
        <mxCell id="NyaL6x0_iCmJU8p4krJc-70" value="派单成功" style="rhombus;whiteSpace=wrap;html=1;" vertex="1" parent="1">
          <mxGeometry x="940" y="400" width="80" height="80" as="geometry" />
        </mxCell>
        <mxCell id="NyaL6x0_iCmJU8p4krJc-79" value="" style="edgeStyle=orthogonalEdgeStyle;rounded=0;orthogonalLoop=1;jettySize=auto;html=1;" edge="1" parent="1" source="NyaL6x0_iCmJU8p4krJc-72" target="NyaL6x0_iCmJU8p4krJc-78">
          <mxGeometry relative="1" as="geometry" />
        </mxCell>
        <mxCell id="NyaL6x0_iCmJU8p4krJc-72" value="消息送达" style="whiteSpace=wrap;html=1;" vertex="1" parent="1">
          <mxGeometry x="1150" y="410" width="120" height="60" as="geometry" />
        </mxCell>
        <mxCell id="NyaL6x0_iCmJU8p4krJc-89" style="edgeStyle=orthogonalEdgeStyle;rounded=0;orthogonalLoop=1;jettySize=auto;html=1;entryX=0.5;entryY=1;entryDx=0;entryDy=0;" edge="1" parent="1" source="NyaL6x0_iCmJU8p4krJc-74" target="NyaL6x0_iCmJU8p4krJc-87">
          <mxGeometry relative="1" as="geometry">
            <Array as="points">
              <mxPoint x="980" y="200" />
              <mxPoint x="820" y="200" />
            </Array>
          </mxGeometry>
        </mxCell>
        <mxCell id="NyaL6x0_iCmJU8p4krJc-90" style="edgeStyle=orthogonalEdgeStyle;rounded=0;orthogonalLoop=1;jettySize=auto;html=1;" edge="1" parent="1" source="NyaL6x0_iCmJU8p4krJc-74" target="NyaL6x0_iCmJU8p4krJc-86">
          <mxGeometry relative="1" as="geometry" />
        </mxCell>
        <mxCell id="NyaL6x0_iCmJU8p4krJc-91" style="edgeStyle=orthogonalEdgeStyle;rounded=0;orthogonalLoop=1;jettySize=auto;html=1;entryX=0.5;entryY=1;entryDx=0;entryDy=0;" edge="1" parent="1" source="NyaL6x0_iCmJU8p4krJc-74" target="NyaL6x0_iCmJU8p4krJc-88">
          <mxGeometry relative="1" as="geometry">
            <Array as="points">
              <mxPoint x="980" y="200" />
              <mxPoint x="1150" y="200" />
            </Array>
          </mxGeometry>
        </mxCell>
        <mxCell id="NyaL6x0_iCmJU8p4krJc-92" value="取消事件" style="edgeLabel;html=1;align=center;verticalAlign=middle;resizable=0;points=[];" vertex="1" connectable="0" parent="NyaL6x0_iCmJU8p4krJc-91">
          <mxGeometry x="-0.8491" relative="1" as="geometry">
            <mxPoint as="offset" />
          </mxGeometry>
        </mxCell>
        <mxCell id="NyaL6x0_iCmJU8p4krJc-74" value="派单失败，系统取消" style="whiteSpace=wrap;html=1;" vertex="1" parent="1">
          <mxGeometry x="920" y="260" width="120" height="60" as="geometry" />
        </mxCell>
        <mxCell id="NyaL6x0_iCmJU8p4krJc-81" value="" style="edgeStyle=orthogonalEdgeStyle;rounded=0;orthogonalLoop=1;jettySize=auto;html=1;" edge="1" parent="1" source="NyaL6x0_iCmJU8p4krJc-78" target="NyaL6x0_iCmJU8p4krJc-80">
          <mxGeometry relative="1" as="geometry" />
        </mxCell>
        <mxCell id="NyaL6x0_iCmJU8p4krJc-84" value="取消" style="edgeLabel;html=1;align=center;verticalAlign=middle;resizable=0;points=[];" vertex="1" connectable="0" parent="NyaL6x0_iCmJU8p4krJc-81">
          <mxGeometry x="-0.5778" y="-2" relative="1" as="geometry">
            <mxPoint x="2" y="11" as="offset" />
          </mxGeometry>
        </mxCell>
        <mxCell id="NyaL6x0_iCmJU8p4krJc-83" value="" style="edgeStyle=orthogonalEdgeStyle;rounded=0;orthogonalLoop=1;jettySize=auto;html=1;" edge="1" parent="1" source="NyaL6x0_iCmJU8p4krJc-78" target="NyaL6x0_iCmJU8p4krJc-82">
          <mxGeometry relative="1" as="geometry" />
        </mxCell>
        <mxCell id="NyaL6x0_iCmJU8p4krJc-78" value="司机8S内取消" style="rhombus;whiteSpace=wrap;html=1;" vertex="1" parent="1">
          <mxGeometry x="1370" y="400" width="80" height="80" as="geometry" />
        </mxCell>
        <mxCell id="NyaL6x0_iCmJU8p4krJc-80" value="assignCallback" style="whiteSpace=wrap;html=1;" vertex="1" parent="1">
          <mxGeometry x="1350" y="570" width="120" height="60" as="geometry" />
        </mxCell>
        <mxCell id="NyaL6x0_iCmJU8p4krJc-95" value="" style="edgeStyle=orthogonalEdgeStyle;rounded=0;orthogonalLoop=1;jettySize=auto;html=1;" edge="1" parent="1" source="NyaL6x0_iCmJU8p4krJc-82" target="NyaL6x0_iCmJU8p4krJc-94">
          <mxGeometry relative="1" as="geometry" />
        </mxCell>
        <mxCell id="NyaL6x0_iCmJU8p4krJc-82" value="连环派单，待服务？" style="whiteSpace=wrap;html=1;" vertex="1" parent="1">
          <mxGeometry x="1570" y="410" width="120" height="60" as="geometry" />
        </mxCell>
        <mxCell id="NyaL6x0_iCmJU8p4krJc-85" value="不取消" style="text;html=1;align=center;verticalAlign=middle;resizable=0;points=[];autosize=1;strokeColor=none;" vertex="1" parent="1">
          <mxGeometry x="1455" y="420" width="50" height="20" as="geometry" />
        </mxCell>
        <mxCell id="NyaL6x0_iCmJU8p4krJc-86" value="客服关单逻辑" style="rounded=1;whiteSpace=wrap;html=1;fillColor=#fff2cc;strokeColor=#d6b656;" vertex="1" parent="1">
          <mxGeometry x="920" y="100" width="120" height="60" as="geometry" />
        </mxCell>
        <mxCell id="NyaL6x0_iCmJU8p4krJc-87" value="活动取消逻辑" style="rounded=1;whiteSpace=wrap;html=1;fillColor=#fff2cc;strokeColor=#d6b656;" vertex="1" parent="1">
          <mxGeometry x="760" y="100" width="120" height="60" as="geometry" />
        </mxCell>
        <mxCell id="NyaL6x0_iCmJU8p4krJc-88" value="...." style="rounded=1;whiteSpace=wrap;html=1;" vertex="1" parent="1">
          <mxGeometry x="1090" y="100" width="120" height="60" as="geometry" />
        </mxCell>
        <mxCell id="NyaL6x0_iCmJU8p4krJc-97" value="" style="edgeStyle=orthogonalEdgeStyle;rounded=0;orthogonalLoop=1;jettySize=auto;html=1;" edge="1" parent="1" source="NyaL6x0_iCmJU8p4krJc-94" target="NyaL6x0_iCmJU8p4krJc-96">
          <mxGeometry relative="1" as="geometry" />
        </mxCell>
        <mxCell id="NyaL6x0_iCmJU8p4krJc-94" value="结束当前订单" style="whiteSpace=wrap;html=1;" vertex="1" parent="1">
          <mxGeometry x="1770" y="410" width="120" height="60" as="geometry" />
        </mxCell>
        <mxCell id="NyaL6x0_iCmJU8p4krJc-96" value="更新连环单为当前服务中订单" style="whiteSpace=wrap;html=1;" vertex="1" parent="1">
          <mxGeometry x="1970" y="410" width="120" height="60" as="geometry" />
        </mxCell>
      </root>
    </mxGraphModel>
  </diagram>
</mxfile>
